<?xml version="1.0" standalone="no"?>
<svg xmlns:xlink="http://www.w3.org/1999/xlink" id="wave" style="transform:rotate(0deg); transition: 0.3s" viewBox="0 0 1440 100" version="1.1" xmlns="http://www.w3.org/2000/svg"><defs><linearGradient id="sw-gradient-0" x1="0" x2="0" y1="1" y2="0"><stop stop-color="rgba(109, 151, 115, 1)" offset="0%"/><stop stop-color="rgba(109, 151, 115, 1)" offset="100%"/></linearGradient></defs><path style="transform:translate(0, 0px); opacity:1" fill="url(#sw-gradient-0)" d="M0,20L26.7,31.7C53.3,43,107,67,160,70C213.3,73,267,57,320,43.3C373.3,30,427,20,480,15C533.3,10,587,10,640,16.7C693.3,23,747,37,800,50C853.3,63,907,77,960,71.7C1013.3,67,1067,43,1120,36.7C1173.3,30,1227,40,1280,48.3C1333.3,57,1387,63,1440,56.7C1493.3,50,1547,30,1600,25C1653.3,20,1707,30,1760,30C1813.3,30,1867,20,1920,21.7C1973.3,23,2027,37,2080,48.3C2133.3,60,2187,70,2240,76.7C2293.3,83,2347,87,2400,81.7C2453.3,77,2507,63,2560,51.7C2613.3,40,2667,30,2720,28.3C2773.3,27,2827,33,2880,35C2933.3,37,2987,33,3040,36.7C3093.3,40,3147,50,3200,45C3253.3,40,3307,20,3360,15C3413.3,10,3467,20,3520,31.7C3573.3,43,3627,57,3680,60C3733.3,63,3787,57,3813,53.3L3840,50L3840,100L3813.3,100C3786.7,100,3733,100,3680,100C3626.7,100,3573,100,3520,100C3466.7,100,3413,100,3360,100C3306.7,100,3253,100,3200,100C3146.7,100,3093,100,3040,100C2986.7,100,2933,100,2880,100C2826.7,100,2773,100,2720,100C2666.7,100,2613,100,2560,100C2506.7,100,2453,100,2400,100C2346.7,100,2293,100,2240,100C2186.7,100,2133,100,2080,100C2026.7,100,1973,100,1920,100C1866.7,100,1813,100,1760,100C1706.7,100,1653,100,1600,100C1546.7,100,1493,100,1440,100C1386.7,100,1333,100,1280,100C1226.7,100,1173,100,1120,100C1066.7,100,1013,100,960,100C906.7,100,853,100,800,100C746.7,100,693,100,640,100C586.7,100,533,100,480,100C426.7,100,373,100,320,100C266.7,100,213,100,160,100C106.7,100,53,100,27,100L0,100Z"/></svg>